<svg xmlns="http://www.w3.org/2000/svg" xmlns:xlink="http://www.w3.org/1999/xlink" width="90.622" height="89.696"><defs><radialGradient id="A" cx="96.108" cy="105.121" fx="96.108" fy="105.121" r="45.311" gradientTransform="matrix(1.321828,-0.28303128,0.3393413,1.5848104,-66.835254,-201.78317)" xlink:href="#G"><stop offset="0" stop-color="#fe9f1b"/><stop offset="1" stop-color="#fe9f1b" stop-opacity="0"/></radialGradient><radialGradient id="B" cx="127.426" cy="184.025" fx="127.426" fy="184.025" r="45.311" gradientTransform="matrix(0.94249999,-0.51666912,0.46458168,0.84748289,-71.800005,-76.427228)" xlink:href="#G"><stop offset="0" stop-color="#02a4fd"/><stop offset="1" stop-color="#02a4fd" stop-opacity="0"/></radialGradient><radialGradient id="C" cx="176.125" cy="176.019" fx="176.125" fy="176.019" r="45.311" gradientTransform="matrix(1.3003563,0,0,1.2870683,-52.900354,-214.4417)" xlink:href="#G"><stop offset="0" stop-color="#ef7aff"/><stop offset="1" stop-color="#ef7aff" stop-opacity="0"/></radialGradient><radialGradient id="D" cx="174.082" cy="100.335" fx="174.082" fy="100.335" r="45.311" gradientTransform="matrix(1.6481588,0,0,1.6313168,-114.15719,-224.56896)" xlink:href="#G"><stop offset="0" stop-color="#ff2063"/><stop offset="1" stop-color="#ff2063" stop-opacity="0"/></radialGradient><radialGradient id="E" cx="136.73" cy="91.581" fx="136.73" fy="91.581" r="45.311" gradientTransform="matrix(1,0,0,1.1962307,0,-181.02049)" xlink:href="#G"><stop offset="0" stop-color="#f76e49"/><stop offset="1" stop-color="#f76e49" stop-opacity=".043"/></radialGradient><radialGradient id="F" gradientTransform="matrix(1.0242319,0,0,1.0125048,17.918352,-181.9257)" cx="160.24" cy="176.043" fx="160.24" fy="176.043" r="45.311" xlink:href="#G"><stop offset="0" stop-color="#fd56cb"/><stop offset="1" stop-color="#fd56cb" stop-opacity="0"/></radialGradient><linearGradient id="G" gradientUnits="userSpaceOnUse"/></defs><g transform="translate(-91.419 71.468)"><rect width="90.622" height="89.696" x="91.419" y="-71.468" rx="21.929" fill="#fff" paint-order="markers stroke fill"/><rect width="90.622" height="89.696" x="91.419" y="-71.468" rx="21.929" fill="url(#E)" paint-order="markers stroke fill"/><rect width="90.622" height="89.696" x="91.419" y="-71.468" rx="21.929" fill="url(#D)" paint-order="markers stroke fill"/><rect width="90.622" height="89.696" x="91.419" y="-71.468" rx="21.929" fill="url(#F)" paint-order="markers stroke fill"/><rect width="90.622" height="89.696" x="91.419" y="-71.468" rx="21.929" fill="url(#C)" paint-order="markers stroke fill"/><rect width="90.622" height="89.696" x="91.419" y="-71.468" rx="21.929" fill="url(#B)" paint-order="markers stroke fill"/><rect width="90.622" height="89.696" x="91.419" y="-71.468" rx="21.929" fill="url(#A)" paint-order="markers stroke fill"/><path d="M136.936-65.756a39.189 38.931 0 0 0-39.19 38.931 39.189 38.931 0 0 0 39.19 38.931 39.189 38.931 0 0 0 39.189-38.931 39.189 38.931 0 0 0-39.189-38.931zm.427 6.369c14.749 0 25.699 9.84 29.92 20.248-9.87-2.532-19.084 7.246-19.084 7.246l4.515 4.175c3.701-3.036 9.428-7.07 13.45-5.515 1.868.722 4.309 3.015 4.309 6.514 0 6.335-7.732 13.11-19.951 1.486-16.516-15.713-17.442-15.555-24.044-19.367s-16.005-1.242-16.005-1.242c6.948-9.732 17.305-13.545 26.89-13.545zm-20.792 17.86c2.993.063 6.269 1.111 9.59 3.43 5.299 3.699 10.67 8.53 15.699 13.327 7.354 7.014 14.424 13.567 24.513 11.578-2.916 6.042-7.215 10.752-12.774 14.066-4.277 2.55-8.973 4.357-14.062 4.763-11.772.937-23.072-4.656-29.48-14.189 0 0 7.458 2.697 18.22-1.363 7.363-2.778 14.401-9.402 14.401-9.402l-4.6-4.492c-14.435 14.203-34.961 14.515-34.961-3.615 0-7.984 5.805-14.263 13.454-14.102z" fill="#fff" paint-order="markers stroke fill"/></g></svg>